<svg width="56" height="70" viewBox="0 0 56 70" fill="none" xmlns="http://www.w3.org/2000/svg">
        <g id="logo">
            <g id="vuesax/linear/chart">
                <g id="chart">
                    <path id="Vector" d="M7 64.1667H49" stroke="#1E375A" stroke-width="1.5" stroke-linecap="round" stroke-linejoin="round"/>
                    <g id="Group">
                    <path id="Vector_2" d="M13.0666 24.4417H9.33333C8.05 24.4417 7 25.7542 7 27.3583V52.5C7 54.1042 8.05 55.4167 9.33333 55.4167H13.0666C14.3499 55.4167 15.3999 54.1042 15.3999 52.5V27.3583C15.3999 25.7542 14.3499 24.4417 13.0666 24.4417Z" stroke="#1E375A" stroke-width="1.5" stroke-linecap="round" stroke-linejoin="round"/>
                    <path id="Vector_3" d="M29.8671 15.1375H26.1338C24.8505 15.1375 23.8005 16.45 23.8005 18.0542V52.5C23.8005 54.1042 24.8505 55.4167 26.1338 55.4167H29.8671C31.1504 55.4167 32.2004 54.1042 32.2004 52.5V18.0542C32.2004 16.45 31.1504 15.1375 29.8671 15.1375Z" stroke="#1E375A" stroke-width="1.5" stroke-linecap="round" stroke-linejoin="round"/>
                    <path id="Vector_4" d="M46.6664 5.83334H42.9331C41.6498 5.83334 40.5998 7.14584 40.5998 8.75001V52.5C40.5998 54.1042 41.6498 55.4167 42.9331 55.4167H46.6664C47.9497 55.4167 48.9997 54.1042 48.9997 52.5V8.75001C48.9997 7.14584 47.9497 5.83334 46.6664 5.83334Z" stroke="#1E375A" stroke-width="1.5" stroke-linecap="round" stroke-linejoin="round"/>
                </g>
            </g>
        </g>
    </g>
</svg>
