<?xml version="1.0" standalone="no"?>
<!DOCTYPE svg PUBLIC "-//W3C//DTD SVG 20010904//EN"
 "http://www.w3.org/TR/2001/REC-SVG-20010904/DTD/svg10.dtd">
<svg version="1.0" xmlns="http://www.w3.org/2000/svg"
 width="534.000000pt" height="534.000000pt" viewBox="0 0 534.000000 534.000000"
 preserveAspectRatio="xMidYMid meet">
<metadata>
Created by potrace 1.14, written by Peter Selinger 2001-2017
</metadata>
<g transform="translate(0.000000,534.000000) scale(0.100000,-0.100000)"
fill="#000000" stroke="none">
<path d="M2437 5084 c-1 -1 -49 -4 -107 -7 -58 -4 -116 -9 -130 -12 -14 -3
-41 -8 -60 -11 -64 -10 -264 -62 -365 -94 -474 -152 -894 -412 -1180 -732 -53
-60 -195 -251 -195 -264 0 -4 -6 -15 -14 -23 -42 -49 -138 -258 -185 -402 -67
-205 -89 -360 -86 -584 2 -93 6 -183 9 -200 3 -16 8 -43 11 -60 3 -16 7 -41
10 -55 3 -14 7 -37 10 -52 13 -69 81 -253 131 -355 207 -417 558 -766 1007
-1002 61 -33 152 -76 200 -96 48 -20 100 -41 115 -47 15 -6 30 -12 35 -13 4
-2 9 -4 12 -5 3 -1 8 -3 13 -4 4 -1 45 -14 92 -29 130 -40 210 -60 332 -82
120 -22 151 -25 373 -41 95 -7 565 -6 615 1 19 3 79 7 132 10 84 4 104 1 150
-18 73 -30 401 -197 503 -257 30 -17 93 -51 240 -130 44 -23 100 -54 125 -68
25 -14 118 -62 207 -108 167 -86 251 -118 273 -104 13 8 9 61 -11 120 -27 84
-209 533 -264 655 -7 17 -23 55 -35 85 -12 30 -28 69 -35 85 -47 102 -92 224
-86 232 6 9 81 70 135 108 316 226 586 576 711 920 10 28 23 56 28 63 5 6 7
12 4 12 -4 0 1 19 9 43 39 111 48 197 48 452 0 233 -3 282 -22 350 -7 28 -15
61 -18 74 -12 56 -91 255 -143 356 -106 206 -221 363 -396 539 -80 81 -96 95
-190 172 -154 125 -430 285 -620 358 -38 15 -79 31 -90 36 -11 5 -67 25 -125
44 -230 75 -399 109 -605 122 -201 12 -561 24 -568 18z m378 -118 c66 -4 134
-8 150 -11 17 -2 68 -9 115 -15 47 -5 94 -12 105 -14 11 -2 40 -7 65 -11 119
-19 367 -93 510 -153 531 -222 957 -598 1180 -1042 75 -150 109 -257 135 -430
25 -171 26 -498 0 -625 -17 -88 -84 -262 -148 -385 -131 -253 -286 -427 -612
-686 -55 -43 -101 -82 -103 -86 -2 -5 -8 -8 -12 -8 -5 0 -23 -13 -40 -29 l-32
-29 21 -47 c12 -26 21 -54 21 -61 0 -8 5 -14 10 -14 6 0 10 -6 10 -14 0 -11
71 -187 110 -271 17 -37 87 -208 153 -375 64 -161 84 -220 74 -220 -8 0 -311
158 -437 228 -25 13 -76 42 -115 62 -38 20 -86 46 -105 57 -35 20 -138 77
-175 97 -11 6 -28 17 -37 25 -10 8 -18 10 -18 6 0 -4 -8 -2 -17 6 -20 16 -24
18 -148 84 -49 26 -95 51 -101 56 -5 5 -21 7 -35 5 -13 -3 -53 -7 -89 -10 -83
-8 -154 -15 -205 -21 -22 -3 -85 -7 -140 -11 -55 -3 -111 -6 -125 -8 -14 -1
-35 2 -46 6 -12 4 -25 4 -28 0 -7 -7 -92 -6 -216 3 -107 7 -257 25 -326 39
-12 2 -37 7 -56 10 -273 43 -660 189 -913 344 -79 49 -231 155 -245 171 -3 3
-26 23 -52 44 -120 96 -275 269 -376 417 -52 77 -139 238 -161 300 -8 19 -19
49 -27 66 -18 40 -71 254 -79 319 -4 28 -9 61 -12 75 -15 79 -9 377 11 484 4
21 19 96 21 106 5 23 27 98 32 110 3 8 7 20 8 25 13 56 131 300 162 333 7 7
13 17 13 22 0 7 97 143 135 190 22 27 250 255 275 276 79 63 172 131 244 177
45 29 91 58 101 64 37 24 300 152 340 166 22 8 85 31 140 51 152 55 429 118
615 141 25 3 108 8 185 11 77 4 142 8 143 10 2 1 9 1 15 -1 7 -2 66 -6 132 -9z"/>
<path d="M3472 3173 l3 -988 238 0 237 0 0 45 c1 56 1 1888 0 1913 0 16 -18
17 -240 17 l-240 0 2 -987z"/>
<path d="M2779 3757 c-3 -5 -4 -1553 -2 -1562 2 -6 87 -10 236 -9 127 1 235 2
238 3 3 0 5 353 5 784 l-1 782 -237 2 c-131 1 -238 1 -239 0z"/>
<path d="M2086 3272 c-3 -7 -1 -1071 2 -1082 1 -3 113 -5 250 -5 l247 0 3 548
2 547 -250 -1 c-137 0 -252 -4 -254 -7z"/>
<path d="M1390 2916 c-3 -155 -1 -717 3 -723 4 -6 466 -10 499 -4 4 0 5 92 2
204 -2 111 -6 273 -8 360 -2 87 -6 160 -8 163 -3 2 -99 7 -214 10 -115 3 -224
6 -241 8 -27 2 -33 -1 -33 -18z"/>
<path d="M1254 2069 c-3 -5 -3 -13 0 -17 3 -5 6 -26 8 -46 1 -22 8 -41 16 -44
28 -10 2792 -8 2793 3 0 6 3 24 6 40 3 17 6 39 7 50 1 20 -6 20 -1412 21 -807
1 -1415 -2 -1418 -7z"/>
</g>
</svg>
