<?xml version="1.0" standalone="no"?>
<!DOCTYPE svg PUBLIC "-//W3C//DTD SVG 20010904//EN"
 "http://www.w3.org/TR/2001/REC-SVG-20010904/DTD/svg10.dtd">
<svg version="1.0" xmlns="http://www.w3.org/2000/svg"
 width="200.000000pt" height="200.000000pt" viewBox="0 0 200.000000 200.000000"
 preserveAspectRatio="xMidYMid meet">
<metadata>
Created by potrace 1.14, written by Peter Selinger 2001-2017
</metadata>
<g transform="translate(0.000000,200.000000) scale(0.100000,-0.100000)"
fill="#000000" stroke="none">
<path d="M495 1768 c-181 -61 -270 -221 -200 -363 28 -57 46 -80 95 -117 72
-54 222 -87 308 -67 24 5 46 2 78 -12 34 -15 61 -19 121 -17 l78 3 -27 24
c-15 13 -33 40 -39 58 -10 32 -9 37 15 62 60 63 79 185 40 266 -18 39 -64 89
-110 122 -86 60 -248 79 -359 41z m313 -186 c3 -9 -38 -12 -182 -12 -161 0
-208 5 -191 21 2 2 86 4 186 4 136 0 183 -3 187 -13z m2 -92 c0 -12 9 -12
-135 -12 -154 0 -155 0 -155 12 0 6 55 10 145 10 90 0 145 -4 145 -10z m-3
-94 c-2 -7 -41 -12 -103 -13 -101 -3 -129 1 -120 15 7 13 227 11 223 -2z"/>
<path d="M1553 1692 c-13 -2 -23 -9 -24 -15 -3 -39 -4 -1294 -1 -1304 3 -10
47 -13 172 -13 l169 0 -1 665 0 664 -146 3 c-81 2 -157 2 -169 0z"/>
<path d="M1083 1412 l-23 -3 0 -525 0 -524 173 0 172 0 -2 522 c-1 288 -2 525
-2 528 -1 5 -282 7 -318 2z"/>
<path d="M607 1100 c-9 -4 -12 -90 -11 -370 l0 -365 170 -3 170 -2 1 370 c0
262 -3 370 -11 371 -35 4 -308 3 -319 -1z"/>
<path d="M130 608 l0 -248 170 0 c129 0 170 3 171 13 1 14 1 457 0 472 -1 7
-61 11 -171 11 l-170 0 0 -248z"/>
<path d="M56 285 c-19 -14 -21 -46 -4 -63 17 -17 1879 -17 1896 0 17 17 15 42
-5 60 -16 14 -127 15 -944 15 -705 0 -930 -3 -943 -12z"/>
</g>
</svg>
